<svg xmlns="http://www.w3.org/2000/svg" width="400" height="400" fill="none"><rect width="400" height="400" fill="#3D948E" rx="20"/><path fill="#fff" d="M138.726 226.569c0-2.584.841-4.734 2.525-6.45 1.7-1.717 3.85-2.575 6.45-2.575 2.683 0 4.833.775 6.45 2.325l-1.25 1.85c-.65-.584-1.442-1.05-2.375-1.4a7.6 7.6 0 0 0-2.725-.525c-2 0-3.592.641-4.775 1.925-1.167 1.283-1.75 2.891-1.75 4.825 0 1.95.6 3.6 1.8 4.95 1.2 1.35 2.791 2.025 4.775 2.025.983 0 1.95-.2 2.9-.6a8.05 8.05 0 0 0 2.525-1.7l1.325 1.775c-1.867 1.866-4.142 2.8-6.825 2.8-2.684 0-4.867-.875-6.55-2.625-1.667-1.767-2.5-3.967-2.5-6.6Zm17.475 2.575c0-1.884.659-3.45 1.975-4.7 1.317-1.267 2.925-1.9 4.825-1.9 1.917 0 3.534.625 4.85 1.875 1.317 1.25 1.975 2.825 1.975 4.725 0 1.9-.658 3.483-1.975 4.75-1.316 1.266-2.925 1.9-4.825 1.9-1.9 0-3.516-.634-4.85-1.9-1.316-1.267-1.975-2.85-1.975-4.75Zm2.475 0c0 1.316.417 2.408 1.25 3.275.85.85 1.884 1.275 3.1 1.275 1.2 0 2.225-.434 3.075-1.3.85-.867 1.275-1.95 1.275-3.25s-.425-2.375-1.275-3.225c-.85-.85-1.875-1.275-3.075-1.275-1.216 0-2.25.425-3.1 1.275-.833.85-1.25 1.925-1.25 3.225Zm14.073 6.35v-12.65h2.35v1.725l-.075.95h.05c.317-.717.883-1.392 1.7-2.025.833-.634 1.867-.95 3.1-.95 2.883 0 4.325 1.616 4.325 4.85v8.1h-2.425v-7.55c0-1.017-.167-1.8-.5-2.35-.317-.55-.942-.825-1.875-.825-1.217 0-2.225.45-3.025 1.35-.8.883-1.2 1.983-1.2 3.3v6.075h-2.425Zm15.589-4.625v-5.925h-1.65v-1.975h1.7v-3.6h2.375v3.6h3.05v1.975h-3.05v5.65c0 .483.066.908.2 1.275.133.35.291.625.475.825.2.2.425.358.675.475.266.116.5.191.7.225.216.033.433.05.65.05.216 0 .408-.017.575-.05v2.15c-.4.05-.684.075-.85.075-.384 0-.767-.034-1.15-.1a5.528 5.528 0 0 1-1.25-.35 4.39 4.39 0 0 1-1.225-.775c-.334-.334-.625-.8-.875-1.4-.234-.617-.35-1.325-.35-2.125Zm7.14 1.175c0-.934.259-1.717.775-2.35.517-.634 1.2-1.084 2.05-1.35a13.734 13.734 0 0 1 2.4-.575c.734-.1 1.509-.15 2.325-.15h.65v-.25c0-1.85-.925-2.775-2.775-2.775-1.216 0-2.4.408-3.55 1.225l-.975-1.775c.517-.434 1.217-.792 2.1-1.075a8.544 8.544 0 0 1 2.625-.425c1.6 0 2.834.425 3.7 1.275.867.85 1.3 2.075 1.3 3.675v8h-2.275v-1.275l.075-1h-.05c-.383.75-.95 1.366-1.7 1.85a4.358 4.358 0 0 1-2.45.725c-1.15 0-2.141-.342-2.975-1.025-.833-.684-1.25-1.592-1.25-2.725Zm2.425-.2c0 .55.209 1.025.625 1.425.417.4 1 .6 1.75.6 1 0 1.817-.417 2.45-1.25.634-.834.95-1.759.95-2.775v-.475h-.625c-3.433 0-5.15.825-5.15 2.475Zm10.984-2.675c0-1.884.633-3.459 1.9-4.725 1.283-1.267 2.908-1.9 4.875-1.9 2 0 3.583.616 4.75 1.85l-1.15 1.7c-.967-.967-2.133-1.45-3.5-1.45-1.267 0-2.317.433-3.15 1.3-.833.85-1.25 1.916-1.25 3.2 0 1.3.417 2.383 1.25 3.25.85.866 1.925 1.3 3.225 1.3.7 0 1.4-.15 2.1-.45a5.443 5.443 0 0 0 1.8-1.25l.975 1.775c-.583.616-1.325 1.108-2.225 1.475a7.43 7.43 0 0 1-2.825.55c-1.983 0-3.608-.625-4.875-1.875s-1.9-2.834-1.9-4.75Zm14.973 1.7v-5.925h-1.65v-1.975h1.7v-3.6h2.375v3.6h3.05v1.975h-3.05v5.65c0 .483.067.908.2 1.275.133.35.292.625.475.825.2.2.425.358.675.475.267.116.5.191.7.225.217.033.433.05.65.05.217 0 .408-.017.575-.05v2.15c-.4.05-.683.075-.85.075-.383 0-.767-.034-1.15-.1a5.542 5.542 0 0 1-1.25-.35 4.39 4.39 0 0 1-1.225-.775c-.333-.334-.625-.8-.875-1.4-.233-.617-.35-1.325-.35-2.125Zm14.291.075v-8.1h2.425v7.55c0 1 .166 1.775.5 2.325.333.55.958.825 1.875.825 1.25 0 2.25-.467 3-1.4.75-.934 1.125-2.059 1.125-3.375v-5.925h2.4v12.65h-2.35v-1.75l.1-.925h-.05c-.334.75-.917 1.433-1.75 2.05-.834.616-1.817.925-2.95.925-2.884 0-4.325-1.617-4.325-4.85Zm13.992 3 1.15-1.65c1.016.983 2.258 1.475 3.725 1.475.65 0 1.166-.142 1.55-.425.4-.3.6-.709.6-1.225 0-.434-.225-.809-.675-1.125a7.03 7.03 0 0 0-1.625-.825 30.687 30.687 0 0 1-1.9-.775 4.517 4.517 0 0 1-1.625-1.225c-.45-.55-.675-1.209-.675-1.975 0-1.15.433-2.042 1.3-2.675.866-.65 1.95-.975 3.25-.975 1.7 0 3.066.466 4.1 1.4l-.975 1.75c-.367-.35-.85-.625-1.45-.825-.584-.2-1.167-.3-1.75-.3-.65 0-1.175.133-1.575.4-.384.266-.575.658-.575 1.175 0 .45.225.833.675 1.15.45.316.991.591 1.625.825.633.216 1.266.466 1.9.75.65.283 1.2.7 1.65 1.25.45.533.675 1.183.675 1.95 0 1.083-.425 1.975-1.275 2.675-.85.7-1.942 1.05-3.275 1.05-2 0-3.609-.617-4.825-1.85Z"/><rect width="59.768" height="39.955" x="177.575" y="158.826" stroke="#fff" stroke-width="1.651" rx="4.128"/><path stroke="#fff" stroke-linecap="round" stroke-width="1.651" d="m185.665 169.392 21.431 14.288c.22.146.506.148.727.004l21.924-14.292M184.545 190.197l10.87-7.633M229.715 190.196l-10.869-7.632"/></svg>