<svg width="85" height="85" viewBox="0 0 85 85" fill="none" xmlns="http://www.w3.org/2000/svg">
<g id="Group 15">
<circle id="Ellipse 12" cx="42.5" cy="42.5" r="42.5" fill="#DCCE90"/>
<g id="man">
<path id="Vector 2" d="M33.9528 24.885V15.4546H68.7729V36.4917H60.4306L51.3628 45.5594V36.4917H45.5595" stroke="white" stroke-width="2.17625"/>
<circle id="Ellipse 3" cx="45.1966" cy="27.4239" r="1.08813" fill="white"/>
<circle id="Ellipse 4" cx="50.9999" cy="27.4239" r="1.08813" fill="white"/>
<circle id="Ellipse 5" cx="56.8033" cy="27.4239" r="1.08813" fill="white"/>
<path id="Ellipse 6" d="M41.5696 41.9323C41.5696 47.6481 37.4083 52.0882 32.5019 52.0882C27.5955 52.0882 23.4342 47.6481 23.4342 41.9323C23.4342 36.2166 27.5955 31.7765 32.5019 31.7765C37.4083 31.7765 41.5696 36.2166 41.5696 41.9323Z" stroke="white" stroke-width="2.17625"/>
<path id="Vector 3" d="M22.7086 41.5696C24.764 42.295 29.8903 42.5127 33.9526 37.5798C35.1133 42.2225 39.9978 42.1741 42.2949 41.5696" stroke="white" stroke-width="2.17625"/>
<path id="Vector 4" d="M28.1493 51.3627V56.4407C23.9177 57.4079 15.4545 60.1403 15.4545 63.3321C15.4545 66.524 15.4545 68.531 15.4545 69.1355H50.2746V64.3368C50.2746 63.6794 50.1074 63.0258 49.6896 62.5182C48.0574 60.5356 44.1316 57.4486 37.5798 56.4407C37.5798 52.6685 37.5798 50.7582 37.5798 50.6373" stroke="white" stroke-width="2.17625"/>
</g>
</g>
</svg>
