<svg xmlns="http://www.w3.org/2000/svg" width="23" height="23" fill="none"><path fill="#343434" d="M15.094 2.875c-1 0-1.982.387-2.74 1.146l-6.739 6.738a5.485 5.485 0 0 0 0 7.749 5.485 5.485 0 0 0 7.75 0l4.491-4.492-1.01-1.011-4.493 4.492a4.042 4.042 0 0 1-5.727 0 4.042 4.042 0 0 1 0-5.727l6.738-6.739a2.454 2.454 0 0 1 3.482 0 2.454 2.454 0 0 1 0 3.482l-6.739 6.738a.866.866 0 0 1-1.235 0 .866.866 0 0 1 0-1.235l6.177-6.177-1.011-1.01-6.177 6.176a2.31 2.31 0 0 0 0 3.257 2.31 2.31 0 0 0 3.257 0l6.738-6.739a3.897 3.897 0 0 0-2.762-6.648Z" opacity=".5"/></svg>